<svg width="20" height="20" viewBox="0 0 20 20" fill="none" xmlns="http://www.w3.org/2000/svg">
<rect width="20" height="20" fill="#1E1E1E"/>
<g id="Sign Up">
<path d="M-630 -2755C-630 -2756.1 -629.105 -2757 -628 -2757H1168C1169.1 -2757 1170 -2756.1 1170 -2755V8241C1170 8242.1 1169.1 8243 1168 8243H-628C-629.105 8243 -630 8242.1 -630 8241V-2755Z" fill="#404040"/>
<g id="Sign up / unactive button if all inputs not filled">
<rect width="1600" height="900" transform="translate(-530 -457)" fill="#FAFAFA"/>
<g id="Group 4874">
<g id="Group 4859">
<rect id="Rectangle 1" x="-329.5" y="-300.5" width="399" height="539" rx="3.5" fill="white" stroke="#EAEEF1"/>
<g id="Group 2">
<rect id="Rectangle 2" x="-299.5" y="-11.5" width="339" height="43" rx="3.5" fill="white" stroke="#EAEEF1"/>
<g id="Hide 3">
<g id="Iconly/Two-tone/Hide">
<g id="Hide">
<path id="Stroke-1" opacity="0.4" d="M8.13314 11.9722C7.65397 11.4938 7.3623 10.8438 7.3623 10.1147C7.3623 8.65382 8.53897 7.47632 9.99897 7.47632C10.7215 7.47632 11.3865 7.76882 11.8573 8.24715" stroke="#1D1D1D" stroke-width="1.5" stroke-linecap="round" stroke-linejoin="round"/>
<path id="Stroke-3" opacity="0.4" d="M12.5868 10.5823C12.3935 11.6573 11.5468 12.5056 10.4727 12.7006" stroke="#1D1D1D" stroke-width="1.5" stroke-linecap="round" stroke-linejoin="round"/>
<path id="Stroke-5" d="M5.54518 14.5602C4.22268 13.5219 3.10268 12.0052 2.29102 10.1144C3.11102 8.21523 4.23852 6.69023 5.56935 5.64356C6.89185 4.5969 8.41768 4.02856 9.99935 4.02856C11.5902 4.02856 13.1152 4.60523 14.446 5.6594" stroke="#1D1D1D" stroke-width="1.5" stroke-linecap="round" stroke-linejoin="round"/>
<path id="Stroke-7" d="M16.2063 7.49219C16.7796 8.25385 17.2838 9.13302 17.708 10.1139C16.0688 13.9114 13.1721 16.1989 9.99965 16.1989C9.28048 16.1989 8.57132 16.0822 7.88965 15.8547" stroke="#1D1D1D" stroke-width="1.5" stroke-linecap="round" stroke-linejoin="round"/>
<path id="Stroke-9" d="M16.5718 3.54126L3.42676 16.6863" stroke="#1D1D1D" stroke-width="1.5" stroke-linecap="round" stroke-linejoin="round"/>
</g>
</g>
</g>
</g>
</g>
</g>
</g>
</g>
</svg>
