<svg width="24" height="24" viewBox="0 0 24 24" fill="none" xmlns="http://www.w3.org/2000/svg">
<g id="Lock 1">
<path id="Vector" opacity="0.4" d="M12 14.4881V16.5684" stroke="#1D1D1D" stroke-width="1.44" stroke-linecap="round" stroke-linejoin="round"/>
<path id="Vector_2" opacity="0.4" d="M16.2697 10.0004V7.98826C16.2407 5.62954 14.3041 3.74122 11.9462 3.77098C9.63605 3.79978 7.76778 5.66026 7.72852 7.96906V10.0004" stroke="#1D1D1D" stroke-width="1.44" stroke-linecap="round" stroke-linejoin="round"/>
<path id="Vector_3" d="M9.41125 21.093H14.5874C16.1189 21.093 16.8847 21.093 17.4758 20.8089C18.0659 20.5257 18.5419 20.0495 18.8252 19.4601C19.109 18.8687 19.109 18.1026 19.109 16.5714V14.5247C19.109 12.9935 19.109 12.2274 18.8252 11.637C18.5419 11.0466 18.0659 10.5705 17.4758 10.2873C16.8847 10.0031 16.1189 10.0031 14.5874 10.0031H9.41125C7.87976 10.0031 7.11397 10.0031 6.52299 10.2873C5.93278 10.5705 5.45682 11.0466 5.17342 11.637C4.88965 12.2274 4.88965 12.9935 4.88965 14.5247V16.5714C4.88965 18.1026 4.88965 18.8687 5.17342 19.4601C5.45682 20.0495 5.93278 20.5257 6.52299 20.8089C7.11397 21.093 7.87976 21.093 9.41125 21.093Z" stroke="#1D1D1D" stroke-width="1.44" stroke-linecap="round" stroke-linejoin="round"/>
</g>
</svg>
