<svg width="32" height="32" viewBox="0 0 32 32" fill="none" xmlns="http://www.w3.org/2000/svg">
<path d="M22.2474 9.66349V6.59601C22.2474 5.21359 20.9433 4.20354 19.6046 4.54852L8.42432 7.43418C7.61354 7.64341 7.04688 8.37448 7.04688 9.21141V24.7755C7.04688 26.2913 8.27611 27.5205 9.7918 27.5205H22.1988C23.7157 27.5205 24.9437 26.2913 24.9437 24.7755V12.7148C24.9437 11.1979 23.7157 9.96863 22.1988 9.96863H7.04688" stroke="#1D1D1D" stroke-width="2.5" stroke-linecap="round" stroke-linejoin="round"/>
<path fill-rule="evenodd" clip-rule="evenodd" d="M19.0672 18.5297C19.0672 20.2247 17.6935 21.5984 15.9984 21.5984C14.3034 21.5984 12.9297 20.2247 12.9297 18.5297C12.9297 16.8346 14.3034 15.4609 15.9984 15.4609C17.6935 15.4609 19.0672 16.8346 19.0672 18.5297Z" stroke="#8024FF" stroke-width="2.5" stroke-linecap="round" stroke-linejoin="round"/>
</svg>
