<svg width="24" height="24" viewBox="0 0 24 24" fill="none" xmlns="http://www.w3.org/2000/svg">
<g id="Unlock 1">
<path id="Vector" opacity="0.4" d="M9.52148 17.105H14.478M9.52148 13.9292H14.478" stroke="#1D1D1D" stroke-width="1.5" stroke-linecap="round" stroke-linejoin="round"/>
<path id="Vector_2" opacity="0.4" d="M16.0279 6.57534C15.2541 4.35246 12.8245 3.17847 10.6021 3.95271C8.89996 4.54484 7.75371 6.14478 7.74219 7.94727V9.97304" stroke="#1D1D1D" stroke-width="1.5" stroke-linecap="round" stroke-linejoin="round"/>
<path id="Vector_3" d="M9.41121 21.063H14.5875C16.1187 21.063 16.8848 21.063 17.4762 20.7792C18.0656 20.4958 18.5418 20.0198 18.825 19.4296C19.1091 18.8386 19.1092 18.0729 19.1092 16.5414V14.4947C19.1092 12.9633 19.1091 12.1976 18.825 11.6065C18.5418 11.0164 18.0656 10.5404 17.4762 10.257C16.8848 9.97314 16.1187 9.97314 14.5875 9.97314H9.41121C7.88001 9.97314 7.11396 9.97314 6.5226 10.257C5.93316 10.5404 5.45703 11.0164 5.17383 11.6065C4.88967 12.1976 4.88965 12.9633 4.88965 14.4947V16.5414C4.88965 18.0729 4.88967 18.8386 5.17383 19.4296C5.45703 20.0198 5.93316 20.4958 6.5226 20.7792C7.11396 21.063 7.88001 21.063 9.41121 21.063Z" stroke="#1D1D1D" stroke-width="1.5" stroke-linecap="round" stroke-linejoin="round"/>
</g>
</svg>
