<svg width="24" height="24" viewBox="0 0 24 24" fill="none" xmlns="http://www.w3.org/2000/svg">
<g id="User star 2">
<path id="Vector" opacity="0.4" fill-rule="evenodd" clip-rule="evenodd" d="M16.6566 14.6755L17.3167 16.004C17.3499 16.0712 17.4138 16.1177 17.4877 16.1285L18.9664 16.3419C19.0262 16.3501 19.0802 16.3817 19.1168 16.4291C19.1856 16.5187 19.1749 16.6466 19.0927 16.723L18.0207 17.7591C17.9668 17.8106 17.9427 17.8862 17.9568 17.9593L18.2134 19.4205C18.2308 19.5418 18.1486 19.6555 18.0274 19.6746C17.9768 19.6829 17.9261 19.6746 17.8805 19.6522L16.5637 18.9622C16.4981 18.9265 16.4183 18.9265 16.3519 18.9622L15.0259 19.6564C14.9147 19.7128 14.7794 19.6713 14.7187 19.5625C14.6964 19.5185 14.688 19.4687 14.6955 19.4197L14.9521 17.9576C14.9653 17.8845 14.9413 17.8098 14.8882 17.7584L13.8112 16.7221C13.7232 16.635 13.7232 16.493 13.8105 16.4058L13.8112 16.405C13.8469 16.3726 13.8918 16.351 13.94 16.3419L15.4179 16.1277C15.4917 16.116 15.5557 16.0695 15.5889 16.0031L16.249 14.6755C16.2756 14.6216 16.3229 14.5809 16.3793 14.5618C16.4366 14.5427 16.4997 14.5468 16.5537 14.5742C16.5976 14.5958 16.6342 14.6316 16.6566 14.6755Z" stroke="#1D1D1D" stroke-width="1.5" stroke-linecap="round" stroke-linejoin="round"/>
<path id="Vector_2" d="M11.1272 14.7563C7.88831 14.7563 5.12598 15.2461 5.12598 17.2064C5.12598 19.1667 7.87254 19.6732 11.1272 19.6732" stroke="#1D1D1D" stroke-width="1.44" stroke-linecap="round" stroke-linejoin="round"/>
<path id="Vector_3" fill-rule="evenodd" clip-rule="evenodd" d="M14.9615 8.15339C14.9615 10.2706 13.2454 11.9868 11.1281 11.9868C9.01095 11.9868 7.29395 10.2706 7.29395 8.15339C7.29395 6.03619 9.01095 4.32001 11.1281 4.32001C13.2454 4.32001 14.9615 6.03619 14.9615 8.15339Z" stroke="#1D1D1D" stroke-width="1.5" stroke-linecap="round" stroke-linejoin="round"/>
</g>
</svg>
